<svg id="visual" viewBox="0 0 960 540" width="960" height="540" xmlns="http://www.w3.org/2000/svg" xmlns:xlink="http://www.w3.org/1999/xlink" version="1.1"><rect width="960" height="540" fill="#373737"></rect><g><g transform="translate(835 410)"><path d="M70.4 -22.9C79.3 4.6 66.4 39.1 41.9 56.8C17.3 74.4 -18.9 75.1 -43.3 57.8C-67.7 40.5 -80.2 5.2 -71.1 -22.7C-61.9 -50.6 -30.9 -71.1 -0.1 -71C30.7 -71 61.5 -50.5 70.4 -22.9Z" fill="#f4442e"></path></g><g transform="translate(280 247)"><path d="M19.5 -5.7C22.4 2.6 19.9 13.2 13 18.4C6.1 23.5 -5.2 23.1 -12.8 17.5C-20.4 12 -24.3 1.4 -21.5 -6.6C-18.8 -14.7 -9.4 -20.3 -0.5 -20.1C8.3 -19.9 16.6 -14 19.5 -5.7Z" fill="#f4442e"></path></g><g transform="translate(126 433)"><path d="M26 -8.3C29.3 1.8 24.6 14.6 15.5 21.1C6.4 27.7 -7.1 28 -15.3 21.8C-23.6 15.7 -26.6 3 -23.2 -7.2C-19.7 -17.5 -9.9 -25.3 0.7 -25.5C11.3 -25.8 22.7 -18.4 26 -8.3Z" fill="#f4442e"></path></g><g transform="translate(547 297)"><path d="M31.3 -11C35.3 2.2 29.7 17.6 18 26.6C6.3 35.5 -11.5 37.9 -23.7 29.7C-35.9 21.6 -42.5 2.8 -37.7 -11.6C-32.8 -26 -16.4 -36 -1.4 -35.5C13.7 -35.1 27.3 -24.2 31.3 -11Z" fill="#f4442e"></path></g><g transform="translate(811 192)"><path d="M13 -4C14.8 1.3 12.9 8.2 8.3 11.5C3.7 14.9 -3.5 14.8 -8.5 11.3C-13.5 7.8 -16.3 0.8 -14.6 -4.5C-12.8 -9.8 -6.4 -13.4 -0.4 -13.3C5.6 -13.1 11.2 -9.3 13 -4Z" fill="#f4442e"></path></g><g transform="translate(140 103)"><path d="M56.4 -19.5C63.5 3.3 52.8 30.7 32.9 45.2C12.9 59.7 -16.4 61.3 -34.3 48.1C-52.2 34.9 -58.6 6.8 -51 -16.8C-43.4 -40.4 -21.7 -59.7 1.5 -60.2C24.7 -60.7 49.4 -42.4 56.4 -19.5Z" fill="#f4442e"></path></g></g></svg>